<svg width="130" height="129" viewBox="0 0 130 129" fill="none" xmlns="http://www.w3.org/2000/svg">
<path d="M70.6274 1.7973C75.3828 -1.504 81.9517 -0.11372 84.9478 4.83331C87.121 8.41462 91.2998 10.2716 95.4244 9.48558C101.116 8.39497 106.552 12.33 107.271 18.063C107.793 22.2191 110.854 25.6089 114.944 26.5619C120.591 27.8736 123.947 33.6705 122.266 39.2021C121.049 43.2108 122.464 47.5487 125.81 50.0738C130.432 53.5618 131.132 60.2184 127.342 64.5907C124.592 67.7593 124.114 72.2937 126.145 75.9634C128.944 81.0234 126.869 87.3902 121.621 89.8465C117.817 91.6249 115.53 95.5747 115.885 99.7504C116.378 105.508 111.883 110.485 106.088 110.598C101.89 110.681 98.189 113.363 96.8092 117.318C94.907 122.776 88.7768 125.498 83.435 123.257C79.5666 121.631 75.0872 122.579 72.2142 125.635C68.2522 129.85 61.5355 129.85 57.5735 125.635C54.7006 122.579 50.2261 121.631 46.3528 123.257C41.011 125.502 34.8758 122.781 32.9786 117.318C31.6037 113.363 27.898 110.681 23.6994 110.598C17.9043 110.485 13.4101 105.508 13.9029 99.7504C14.2577 95.5796 11.9711 91.6298 8.16684 89.8465C2.91867 87.3902 0.844039 81.0234 3.64306 75.9634C5.66841 72.2986 5.19041 67.7593 2.44559 64.5907C-1.34886 60.2184 -0.644174 53.5618 3.97816 50.0738C7.32417 47.5438 8.73847 43.2059 7.52129 39.2021C5.84089 33.6705 9.19676 27.8736 14.8441 26.5619C18.9342 25.6089 21.9944 22.2191 22.5168 18.063C23.2362 12.33 28.6667 8.39497 34.3633 9.48558C38.4879 10.2765 42.6668 8.41953 44.84 4.83331C47.8312 -0.11372 54.4 -1.50891 59.1554 1.7973C62.6 4.18975 67.178 4.18975 70.6225 1.7973H70.6274Z" fill="url(#paint0_linear_4_2262)"/>
<path d="M64.1633 19.2629L66.4583 14.7426H66.453C66.5212 14.5388 66.4426 14.4238 66.2382 14.4342L64.6664 14.5074C64.5301 14.5126 64.4044 14.6067 64.331 14.7687L63.1154 17.345L61.6641 14.8941C61.5802 14.7478 61.444 14.6537 61.313 14.659L59.7359 14.7321C59.542 14.7426 59.4582 14.8628 59.5578 15.0613L62.2614 19.3361L62.3871 21.996C62.3976 22.1685 62.5076 22.2677 62.6805 22.2573L64.0324 22.1946C64.2053 22.1894 64.2996 22.0796 64.2891 21.9072L64.1633 19.2629Z" fill="white"/>
<path d="M49.4594 17.381C49.4122 17.2086 49.4856 17.0832 49.648 17.0361L54.4003 15.6879C54.5732 15.6408 54.699 15.714 54.7461 15.876L55.0762 17.0361C55.1234 17.2086 55.0553 17.3288 54.8876 17.381L51.681 18.2903L52.0268 19.5079L54.458 18.8181C54.6413 18.7659 54.7776 18.8338 54.83 19.0115L55.1024 19.9678C55.1496 20.135 55.0657 20.2657 54.8876 20.3179L52.4564 21.0078L52.8127 22.262L56.0194 21.3527C56.2447 21.29 56.4228 21.3788 56.4857 21.5878L56.7948 22.6748C56.842 22.8368 56.7634 22.9674 56.5957 23.0145L51.7491 24.3941C51.5814 24.4411 51.4557 24.3732 51.4085 24.206L49.4594 17.381Z" fill="white"/>
<path d="M47.7766 25.7168L44.1666 19.4354L44.1718 19.425C44.1089 19.3152 44.0094 19.2891 43.8941 19.3518L42.5999 20.0939C42.4899 20.1566 42.4637 20.2559 42.5266 20.3708L44.6434 24.055L40.0849 21.8132C39.912 21.7295 39.7548 21.7243 39.6238 21.7975L38.2825 22.5657C38.1725 22.6284 38.141 22.7277 38.2039 22.8426L41.814 29.1241C41.8769 29.239 41.9817 29.2652 42.0917 29.2025L43.3859 28.4604C43.4959 28.3977 43.5273 28.2984 43.4645 28.1834L41.2167 24.2745L46.0004 26.6941C46.1628 26.7725 46.32 26.7777 46.4615 26.6993L47.698 25.9938C47.8081 25.9311 47.8447 25.8318 47.7766 25.7168Z" fill="white"/>
<path fill-rule="evenodd" clip-rule="evenodd" d="M30.7576 28.6485C32.34 27.0807 34.8183 27.0807 36.4006 28.6641C37.9673 30.2371 37.962 32.7089 36.3797 34.2819C34.7973 35.8549 32.3138 35.8496 30.7471 34.2819C29.1648 32.6985 29.1753 30.2214 30.7629 28.6485H30.7576ZM35.0384 32.9389C35.8662 32.1184 35.8714 30.8224 35.0541 30.002C34.2262 29.1711 32.9216 29.1711 32.0989 29.9915C31.2711 30.812 31.2606 32.1132 32.0885 32.9441C32.9058 33.7645 34.2053 33.7645 35.0384 32.9441V32.9389Z" fill="white"/>
<path d="M31.423 39.5761L30.7471 40.7833C30.6633 40.9348 30.5533 40.9714 30.3804 40.8982L26.4769 39.2364L29.5106 42.2517C29.6573 42.3928 29.6783 42.4869 29.5997 42.6332L28.9133 43.8613C28.8347 44.0024 28.7509 44.0389 28.5413 43.9919L24.3863 43.0095L27.8444 45.4395C27.9964 45.5492 28.0226 45.6642 27.9387 45.8157L27.2681 47.0177C27.179 47.1744 27.0428 47.2371 26.8856 47.1222L21.0749 42.9258C20.9282 42.8213 20.8915 42.6959 20.9701 42.5548L21.8346 41.0027C21.9237 40.8407 22.0547 40.8094 22.2171 40.8512L26.9065 41.9382L23.506 38.5362C23.3855 38.4212 23.3384 38.2958 23.4327 38.1285L24.2972 36.5765C24.3758 36.4354 24.5016 36.404 24.6692 36.472L31.3025 39.1946C31.4807 39.273 31.5016 39.4141 31.4126 39.5761H31.423Z" fill="white"/>
<path fill-rule="evenodd" clip-rule="evenodd" d="M81.7727 22.9675C81.3221 24.3419 80.1222 24.8488 78.5137 24.3314L75.6843 23.4117C75.5638 23.3751 75.5114 23.281 75.5533 23.1608L77.8011 16.2732C77.8378 16.153 77.9373 16.106 78.0579 16.1478L80.6776 16.9996C82.2128 17.496 82.8468 18.5621 82.4172 19.8842C82.2443 20.4173 81.8146 20.8458 81.3116 20.9817C81.8408 21.4677 82.0085 22.2411 81.7727 22.9675ZM80.0175 22.2097C80.1642 21.7655 79.9598 21.3997 79.4935 21.2482L78.3093 20.8615L77.8326 22.3195L79.0167 22.7062C79.4883 22.8577 79.8708 22.6644 80.0175 22.2097ZM80.1275 18.6039L79.1424 18.2851L78.7442 19.5132L79.724 19.832C80.117 19.9626 80.4419 19.8006 80.5624 19.4244C80.6881 19.0481 80.5205 18.7346 80.1222 18.6039H80.1275Z" fill="white"/>
<path fill-rule="evenodd" clip-rule="evenodd" d="M88.6557 29.3591L89.9237 30.1378C90.0966 30.2423 90.2275 30.1639 90.259 29.981L91.6265 22.4872C91.658 22.3252 91.5951 22.1632 91.4693 22.0848L90.5262 21.5047C90.4057 21.4316 90.2275 21.4316 90.0861 21.5361L83.9663 26.093C83.8091 26.2132 83.8143 26.3647 83.9767 26.464L85.2395 27.2427C85.3809 27.3263 85.5538 27.3054 85.6639 27.2061L86.4812 26.5372L88.7395 27.9325L88.5037 28.9672C88.4723 29.124 88.5247 29.2807 88.6557 29.3591ZM89.6617 23.9243L89.1115 26.3072L87.7649 25.4763L89.6617 23.9243Z" fill="white"/>
<path d="M97.578 34.3394L97.295 35.7295C97.2688 35.8444 97.1273 35.9176 96.9597 35.8862C96.2523 35.7869 95.3407 35.3271 94.8219 34.8149C93.2239 33.2263 93.2029 30.7336 94.7748 29.1554C96.3519 27.5772 98.8512 27.5824 100.454 29.171C100.963 29.6727 101.429 30.5925 101.55 31.3398C101.576 31.4965 101.487 31.6272 101.366 31.6481L99.9724 31.9146C99.8415 31.9407 99.7105 31.831 99.679 31.6533C99.6161 31.23 99.3961 30.7597 99.1289 30.4984C98.2853 29.6623 96.9492 29.6623 96.1214 30.4984C95.2935 31.3293 95.3092 32.6514 96.1528 33.4876C96.4095 33.7436 96.8759 33.9683 97.2793 34.0311C97.4732 34.0676 97.6042 34.2035 97.578 34.3498V34.3394Z" fill="white"/>
<path d="M101.545 43.6097L102.462 45.1148L102.452 45.12C102.551 45.2768 102.714 45.2454 102.803 45.0521L104.872 40.4847L108.53 41.0439C108.744 41.0752 108.875 40.9341 108.771 40.7669L107.88 39.2984C107.796 39.1626 107.712 39.0685 107.508 39.0528L103.395 38.6348L106.209 36.9364C106.324 36.8684 106.34 36.7691 106.277 36.6646L105.501 35.3843C105.433 35.2746 105.334 35.2432 105.224 35.3111L99.0251 39.058C98.915 39.126 98.8941 39.2357 98.957 39.3402L99.7324 40.6206C99.7953 40.7251 99.9001 40.7512 100.01 40.6833L101.252 39.9308L102.97 40.1973L101.509 43.3171C101.477 43.4112 101.488 43.5157 101.545 43.6097Z" fill="white"/>
<path d="M26.8584 89.5547L25.7501 90.2638C25.5411 90.1432 25.2861 89.9145 25.1818 89.748C24.553 88.776 24.815 87.5218 25.7738 86.9052C26.7274 86.2938 27.9797 86.576 28.6085 87.548C28.8076 87.8563 28.9543 88.3475 28.9019 88.7708C28.8862 88.9276 28.9909 89.0582 29.1377 89.0582L30.4947 89.0791C30.6309 89.0843 30.7462 88.9746 30.7619 88.8283C30.8405 88.1228 30.5576 87.1612 30.1594 86.5446C28.97 84.7051 26.5965 84.1721 24.7678 85.3479C22.934 86.5185 22.4362 88.8962 23.6256 90.7409C24.05 91.3994 24.8674 92.1362 25.4804 92.4184C25.5643 92.4654 25.7057 92.4498 25.7896 92.3923L27.8435 91.0754C27.9692 90.9918 28.0059 90.8298 27.9273 90.7096L27.2357 89.633C27.1519 89.5076 26.9894 89.4711 26.8584 89.5547Z" fill="white"/>
<path d="M32.5929 98.5171C31.9432 97.9109 32.0742 97.2002 32.6348 96.5992V96.6044L35.4799 93.5525C35.5638 93.4585 35.569 93.3487 35.4799 93.2651L34.4058 92.267C34.322 92.1938 34.212 92.1991 34.1229 92.2931L31.2883 95.3345C29.8788 96.85 29.8422 98.4335 31.3616 99.8444C32.8078 101.187 34.4582 101.093 35.8624 99.5831L38.697 96.5365C38.7861 96.4424 38.7756 96.3222 38.6761 96.2282L37.6386 95.2666C37.5496 95.1778 37.4343 95.183 37.3452 95.2771L34.5001 98.3289C33.9395 98.9299 33.2374 99.1128 32.5929 98.5171Z" fill="white"/>
<path fill-rule="evenodd" clip-rule="evenodd" d="M44.5753 108.583L43.2969 107.893C43.1659 107.82 43.103 107.674 43.124 107.522L43.2969 106.503L41.0177 105.27L40.2632 105.965C40.1636 106.069 39.9907 106.101 39.8545 106.022L38.5813 105.338C38.4136 105.249 38.4084 105.103 38.5498 104.977L44.2505 100.201C44.3867 100.096 44.5544 100.081 44.6749 100.148L45.6233 100.661C45.749 100.729 45.8224 100.885 45.8014 101.042L44.895 108.41C44.874 108.588 44.7535 108.677 44.5753 108.583ZM43.5746 104.899L43.9728 102.547L42.2175 104.167L43.5746 104.899Z" fill="white"/>
<path fill-rule="evenodd" clip-rule="evenodd" d="M54.5013 111.791L55.9841 112.162C56.1465 112.199 56.2618 112.063 56.2251 111.901L55.544 109.236C56.3509 108.99 56.9534 108.352 57.184 107.443C57.5665 105.912 56.7386 104.668 55.2086 104.287L53.9511 103.973C53.794 103.931 53.3748 103.827 52.9923 103.733L52.6675 103.649C52.5103 103.613 52.3793 103.696 52.3426 103.848L50.6659 110.558C50.6293 110.72 50.6974 110.84 50.8598 110.882L52.1278 111.2C52.3007 111.242 52.4264 111.169 52.4683 111.007L52.9661 109.006L53.7049 109.189L54.255 111.493C54.3074 111.692 54.3598 111.754 54.5013 111.791ZM54.276 107.689L53.3486 107.459L53.7992 105.656L54.7266 105.886C55.2453 106.016 55.523 106.471 55.392 106.983C55.261 107.495 54.7895 107.819 54.276 107.689Z" fill="white"/>
<path fill-rule="evenodd" clip-rule="evenodd" d="M67.5861 112.951C67.4393 112.956 67.3084 112.857 67.256 112.711L66.9154 111.733L64.3218 111.744L63.9917 112.721C63.9498 112.857 63.8188 112.967 63.6616 112.967H62.2155C62.0269 112.972 61.9483 112.852 62.0164 112.674L64.72 105.75C64.7829 105.593 64.9296 105.499 65.0658 105.499H66.1452C66.2866 105.499 66.4281 105.593 66.4857 105.745L69.2418 112.648C69.3099 112.815 69.2418 112.946 69.0427 112.951H67.5861ZM66.381 110.197L65.6003 107.939L64.8353 110.202H66.381V110.197Z" fill="white"/>
<path d="M81.8785 110.061L79.9818 103.257L79.9871 103.268C79.9504 103.142 79.8613 103.095 79.7408 103.127L78.3366 103.519C78.2161 103.555 78.1637 103.639 78.2004 103.764L79.3164 107.757L75.5439 104.543C75.3972 104.412 75.2505 104.37 75.109 104.412L73.6524 104.815C73.5319 104.846 73.4743 104.935 73.5109 105.06L75.4129 111.864C75.4496 111.984 75.5439 112.031 75.6592 112L77.0634 111.608C77.1839 111.577 77.2415 111.483 77.2048 111.362L76.0207 107.13L79.9661 110.563C80.0971 110.678 80.249 110.72 80.401 110.678L81.7423 110.307C81.8576 110.276 81.9152 110.187 81.8785 110.061Z" fill="white"/>
<path d="M84.148 101.512C84.0589 101.36 84.1008 101.224 84.2475 101.141L88.5754 98.6583C88.7221 98.5747 88.8636 98.6113 88.9474 98.7576L89.5605 99.8237C89.6443 99.97 89.6076 100.116 89.4661 100.2L88.1039 100.984L90.8389 105.729C90.928 105.88 90.8913 106.011 90.7341 106.1L89.5971 106.753C89.4504 106.837 89.3142 106.805 89.2251 106.654L86.4901 101.909L85.133 102.687C84.9863 102.771 84.8501 102.734 84.761 102.583L84.148 101.517V101.512Z" fill="white"/>
<path d="M92.6309 95.6378C92.5103 95.7528 92.4999 95.8939 92.6204 96.0193L92.6099 96.0141L97.3622 101.062C97.4827 101.182 97.6189 101.182 97.7447 101.067L101.329 97.7124C101.454 97.5975 101.46 97.4512 101.35 97.331L100.595 96.5262C100.443 96.3694 100.249 96.3694 100.082 96.5262L97.7132 98.7472L96.8435 97.8222L98.6406 96.1395C98.7769 96.0141 98.7874 95.8677 98.6721 95.7423L98.0067 95.0368C97.8861 94.9114 97.7342 94.9114 97.598 95.0368L95.8008 96.7195L94.952 95.8207L97.3203 93.5997C97.446 93.4795 97.4513 93.3437 97.3307 93.2182L96.5239 92.3612C96.4086 92.241 96.2671 92.2306 96.1414 92.3508L92.6309 95.6378Z" fill="white"/>
<path d="M99.6105 88.6665C99.4638 88.5725 99.4376 88.4314 99.5319 88.2903L102.167 84.2664C102.262 84.1201 102.403 84.094 102.545 84.188L103.53 84.8308C103.676 84.9249 103.703 85.0607 103.608 85.2071L101.827 87.9193L102.864 88.5934L104.216 86.5344C104.316 86.3829 104.462 86.3411 104.614 86.4403L105.426 86.9734C105.568 87.0675 105.589 87.2138 105.489 87.3705L104.138 89.4295L105.206 90.1245L106.983 87.4124C107.108 87.219 107.297 87.172 107.48 87.2922L108.408 87.8984C108.544 87.9872 108.57 88.1335 108.481 88.2746L105.793 92.3769C105.699 92.518 105.563 92.5493 105.421 92.4605L99.6105 88.6718V88.6665Z" fill="white"/>
<path d="M55.9576 64.5866C59.8454 64.5866 62.4023 62.329 62.4023 58.7441H62.418C62.418 56.5336 61.3963 54.9554 59.6934 54.3545C60.8461 53.6908 61.522 52.3686 61.522 50.6441C61.522 47.2996 59.2323 45.2197 55.5856 45.2197C53.5369 45.2197 51.5668 46.2649 50.456 47.911C50.236 48.2455 50.2622 48.5643 50.5189 48.7419L52.7562 50.5919C53.0758 50.8427 53.4059 50.8061 53.6365 50.4874C54.0713 49.9021 54.7368 49.4944 55.5699 49.4944C56.6073 49.4944 57.2989 50.1477 57.2989 51.0622C57.2989 51.9767 56.6073 52.6038 55.5961 52.6038H54.3543C53.9561 52.6038 53.6993 52.886 53.6993 53.3302V55.6923C53.6993 56.126 53.9718 56.3821 54.4172 56.3821H55.8738C57.3723 56.3821 58.1373 57.1764 58.1373 58.3992C58.1373 59.5332 57.2046 60.3119 55.8109 60.3119C54.632 60.3119 53.4059 59.967 52.8034 59.1256C52.5624 58.8225 52.1746 58.833 51.8445 59.1152L49.6806 60.8867C49.3872 61.1062 49.3872 61.6131 49.8325 62.0991C51.1477 63.6146 53.1701 64.5866 55.9576 64.5866Z" fill="white"/>
<path fill-rule="evenodd" clip-rule="evenodd" d="M73.5929 45.2197C78.7329 45.2197 81.7561 48.7785 81.7561 54.9032C81.7561 61.0278 78.7381 64.5866 73.5929 64.5866C68.4476 64.5866 65.4453 61.0121 65.4453 54.9032C65.4453 48.7942 68.4528 45.2197 73.5929 45.2197ZM73.6033 60.3119C76.0712 60.3119 77.4649 58.3574 77.4649 54.8875C77.4649 51.4175 76.0712 49.4788 73.6033 49.4788C71.1355 49.4788 69.768 51.4332 69.768 54.8875C69.768 58.3418 71.1512 60.3119 73.6033 60.3119Z" fill="white"/>
<path fill-rule="evenodd" clip-rule="evenodd" d="M51.4086 71.5684C51.1938 71.5684 51.0156 71.7408 51.0156 71.9603V81.9886C51.0156 82.2029 51.1938 82.3806 51.4086 82.3806H54.7776C57.9843 82.3806 60.2373 80.1648 60.2373 76.9875C60.2373 73.8102 57.9843 71.5684 54.7776 71.5684H51.4086ZM57.5441 76.9875C57.5441 78.5605 56.3862 79.8356 54.7776 79.8356V79.8408H53.7088V74.082H54.7776C56.3862 74.0715 57.5441 75.4146 57.5441 76.9875Z" fill="white"/>
<path fill-rule="evenodd" clip-rule="evenodd" d="M71.2602 82.3907H69.1538C68.939 82.3907 68.7556 82.2444 68.677 82.0354L68.1898 80.614H64.4277L63.9457 82.0302C63.8881 82.2287 63.6942 82.3855 63.4637 82.3855H61.3626C61.0901 82.3855 60.9749 82.2078 61.0744 81.9465L65.0355 71.9182C65.1298 71.6883 65.3394 71.5576 65.5385 71.5576H67.1052C67.3148 71.5576 67.5139 71.7039 67.5925 71.9182L71.5483 81.9518C71.6426 82.1974 71.5483 82.3907 71.2602 82.3907ZM67.4248 78.3825L66.3035 75.1059L65.1822 78.3825H67.4248Z" fill="white"/>
<path d="M77.6068 78.2466L81.1435 72.0174L81.1488 72.0227C81.2588 71.7457 81.154 71.5732 80.8658 71.5732H78.639C78.4504 71.5732 78.2618 71.7039 78.1517 71.9234L76.2655 75.4821L74.3792 71.9286C74.2692 71.7143 74.0806 71.5732 73.8972 71.5732H71.6651C71.3927 71.5732 71.2669 71.7352 71.3927 72.0227L74.9242 78.2362V81.9935C74.9242 82.2391 75.0709 82.3855 75.3171 82.3855H77.2296C77.4706 82.3855 77.6068 82.2391 77.6068 81.9935V78.2466Z" fill="white"/>
<path d="M23.5243 78.8999C21.6642 73.8884 20.7159 68.6208 20.7159 63.2225C20.7159 59.1411 21.266 55.1016 22.3402 51.2031H21.2556C20.2076 55.1068 19.668 59.1411 19.668 63.2225C19.668 68.6155 20.6006 73.8832 22.4135 78.8999H23.5243Z" fill="white"/>
<path d="M108.93 66.8806C108.93 61.4823 107.981 56.2147 106.121 51.2031H107.232C109.045 56.2199 109.977 61.4875 109.977 66.8806C109.977 70.9619 109.438 74.9963 108.39 78.8999H107.305C108.379 75.0015 108.93 70.9619 108.93 66.8806Z" fill="white"/>
<defs>
<linearGradient id="paint0_linear_4_2262" x1="141.391" y1="97.8984" x2="14.1527" y2="51.3418" gradientUnits="userSpaceOnUse">
<stop stop-color="#36B8AC"/>
<stop offset="0.96875" stop-color="#5CEC85"/>
</linearGradient>
</defs>
</svg>
